<svg viewBox="0 0 64 64" xmlns="http://www.w3.org/2000/svg">
  <defs>
    <linearGradient id="bgGradient" x1="0%" y1="0%" x2="100%" y2="100%">
      <stop offset="0%" style="stop-color:#10b981"/>
      <stop offset="50%" style="stop-color:#3b82f6"/>
      <stop offset="100%" style="stop-color:#8b5cf6"/>
    </linearGradient>
  </defs>
  
  <!-- Background circle -->
  <circle cx="32" cy="32" r="30" fill="url(#bgGradient)"/>
  <!-- Subtle calendar grid lines -->
  <g opacity="0.18">
  <!-- Vertical fisheye grid lines (bulge outward) -->
  <path d="M12,2 Q0,32 12,62" stroke="#fff" stroke-width="1" fill="none"/>
  <path d="M22,2 Q8,32 22,62" stroke="#fff" stroke-width="1" fill="none"/>
  <path d="M32,2 Q32,64 32,62" stroke="#fff" stroke-width="1" fill="none"/>
  <path d="M42,2 Q56,32 42,62" stroke="#fff" stroke-width="1" fill="none"/>
  <path d="M52,2 Q64,32 52,62" stroke="#fff" stroke-width="1" fill="none"/>
  <!-- Horizontal fisheye grid lines (bulge outward) -->
  <path d="M2,14 Q32,0 62,14" stroke="#fff" stroke-width="1" fill="none"/>
  <path d="M2,24 Q32,8 62,24" stroke="#fff" stroke-width="1" fill="none"/>
  <path d="M2,34 Q32,16 62,34" stroke="#fff" stroke-width="1" fill="none"/>
  <path d="M2,44 Q32,48 62,44" stroke="#fff" stroke-width="1" fill="none"/>
  <path d="M2,54 Q32,56 62,54" stroke="#fff" stroke-width="1" fill="none"/>
  </g>
  <!-- Top-focused glow gradient -->
  <linearGradient id="arrowTopGlow" x1="32" y1="8" x2="32" y2="48" gradientUnits="userSpaceOnUse">
    <stop offset="0%" stop-color="#fff" stop-opacity="0.95"/>
    <stop offset="30%" stop-color="#f59e42" stop-opacity="0.7"/>
    <stop offset="60%" stop-color="#10b981" stop-opacity="0.3"/>
    <stop offset="100%" stop-color="#3b82f6" stop-opacity="0"/>
  </linearGradient>
  <!-- SVG filter for color blend mode glow -->
  <filter id="arrowGlowFilter" x="0" y="0" width="64" height="64" filterUnits="userSpaceOnUse">
    <feGaussianBlur stdDeviation="7" result="blur"/>
    <feMerge>
      <feMergeNode in="blur"/>
      <feMergeNode in="SourceGraphic"/>
    </feMerge>
  </filter>
  <!-- Glow shape above arrow (larger reflection) -->
  <ellipse cx="32" cy="18" rx="22" ry="12" fill="url(#arrowTopGlow)" style="mix-blend-mode:overlay;" filter="url(#arrowGlowFilter)"/>
  <!-- Large upward arrow with top glow effect -->
  <path d="M 32 16 L 20 28 L 26 28 L 26 48 L 38 48 L 38 28 L 44 28 Z" fill="#fff" stroke="#fff" stroke-width="1.5"/>
</svg>